<svg width="500" height="500" xmlns="http://www.w3.org/2000/svg">
  <defs>
    <linearGradient id="dogeGrad" x1="0%" y1="0%" x2="100%" y2="100%">
      <stop offset="0%" style="stop-color:#0a0a0a;stop-opacity:1" />
      <stop offset="50%" style="stop-color:#1a1a2e;stop-opacity:1" />
      <stop offset="100%" style="stop-color:#16213e;stop-opacity:1" />
    </linearGradient>
    <radialGradient id="moonGrad" cx="50%" cy="50%" r="50%">
      <stop offset="0%" style="stop-color:#f8f8ff;stop-opacity:1" />
      <stop offset="100%" style="stop-color:#e6e6fa;stop-opacity:1" />
    </radialGradient>
  </defs>
  
  <!-- Space Background -->
  <rect width="500" height="500" fill="url(#dogeGrad)"/>
  
  <!-- Stars -->
  <circle cx="100" cy="80" r="2" fill="white"/>
  <circle cx="200" cy="120" r="1.5" fill="white"/>
  <circle cx="350" cy="60" r="2" fill="white"/>
  <circle cx="450" cy="150" r="1" fill="white"/>
  <circle cx="80" cy="200" r="1.5" fill="white"/>
  <circle cx="420" cy="250" r="2" fill="white"/>
  
  <!-- Moon -->
  <circle cx="400" cy="100" r="40" fill="url(#moonGrad)"/>
  <circle cx="390" cy="90" r="8" fill="#d3d3d3"/>
  <circle cx="410" cy="110" r="5" fill="#d3d3d3"/>
  
  <!-- Doge Face -->
  <circle cx="150" cy="200" r="80" fill="#ffd700"/>
  <circle cx="130" cy="180" r="12" fill="white"/>
  <circle cx="170" cy="180" r="12" fill="white"/>
  <circle cx="135" cy="180" r="6" fill="black"/>
  <circle cx="175" cy="180" r="6" fill="black"/>
  <ellipse cx="150" cy="220" rx="20" ry="10" fill="#8b4513"/>
  
  <!-- Rocket Trail -->
  <path d="M 150 280 Q 200 350 250 400" stroke="#ff6b6b" stroke-width="8" fill="none"/>
  <path d="M 150 280 Q 180 350 210 400" stroke="#ffa500" stroke-width="6" fill="none"/>
  <path d="M 150 280 Q 160 350 170 400" stroke="#ffff00" stroke-width="4" fill="none"/>
  
  <!-- Text Area -->
  <rect x="50" y="420" width="400" height="60" fill="#1a1a1a" stroke="#ffd700" stroke-width="2" rx="5"/>
  
  <!-- Title -->
  <text x="250" y="30" text-anchor="middle" fill="#ffd700" font-family="Arial, sans-serif" font-size="24" font-weight="bold">DOGE TO THE MOON</text>
  
  <!-- Template Label -->
  <text x="250" y="450" text-anchor="middle" fill="#ffd700" font-family="Arial, sans-serif" font-size="16" font-weight="bold">DOGE TO THE MOON</text>
</svg>
